<svg width="229" height="59" viewBox="0 0 229 59" fill="none" xmlns="http://www.w3.org/2000/svg">
<path d="M2.5 55.4661C16.5881 39.2935 30.6762 23.121 38.1134 14.7537C45.5506 6.38647 45.91 6.3146 46.2389 6.45727C47.6855 7.08477 47.5131 9.2812 47.5152 11.9298C47.5168 13.8381 44.9211 19.2614 43.379 23.2582C42.9361 24.406 42.4337 25.6912 41.6049 28.4694C39.9576 33.9913 37.864 40.5503 36.9927 45.6656C36.6611 47.6126 36.6965 48.2652 38.4575 47.7359C43.9583 46.0826 48.0881 43.2011 50.6866 41.5043C55.5238 38.3458 59.0549 36.3727 63.373 33.9266C67.3577 31.6695 74.879 27.1679 79.4138 24.369C83.9487 21.5702 85.2425 20.5639 89.0716 18.0329C92.9008 15.5019 99.226 11.4767 103.06 9.11566C109.634 5.06619 111.471 4.06677 112.78 2.97771C113.139 2.67945 113.575 2.39833 113.905 2.53773C116.088 3.45967 114.386 7.5387 113.696 9.96948C113.495 10.6792 113.083 11.3809 107.363 19.0109C101.644 26.6408 90.5745 41.1602 85.1238 48.6039C79.673 56.0476 80.1762 55.9758 80.6151 55.9387C81.4114 55.8716 87.7495 54.1766 97.6153 51.1676C101.543 49.9698 103.168 49.0929 104.739 48.3262C106.309 47.5595 107.747 46.8407 116.142 41.8703C124.538 36.8998 139.848 27.6994 151.293 21.1269C162.738 14.5544 169.854 10.8887 173.735 8.92835C177.617 6.96804 178.048 6.82428 178.558 6.75022C179.067 6.67617 179.642 6.67617 180.01 7.14337C180.934 8.31545 180.598 9.93899 180.454 10.7721C180.321 11.5356 178.582 14.4194 173.489 20.9265C170.242 25.0757 164.875 30.3088 161.023 34.0203C155.003 39.8204 151.061 42.9637 148.921 45.3934C146.893 47.6961 146.984 50.0121 146.548 51.9375C146.442 52.4063 146.474 52.8436 146.761 53.1377C148.19 54.5991 150.891 53.5798 161.279 51.2645C164.864 50.4653 167.155 50.1689 172.419 49.0504C176.592 48.1635 183.863 46.8538 188.753 45.7549C193.643 44.6561 195.943 43.8654 199.177 42.955C202.41 42.0445 206.507 41.0382 210.415 39.9089C221.978 36.083 223.139 35.5014 224.116 35.1039C224.662 34.8502 225.309 34.4908 226.411 34.1205" stroke="#DF4346" stroke-width="5" stroke-linecap="round"/>
</svg>
