<svg width="138" height="53" viewBox="0 0 138 53" fill="none" xmlns="http://www.w3.org/2000/svg">
<rect x="137.644" y="0.111568" width="52" height="2.6" transform="rotate(90.0425 137.644 0.111568)" fill="#F69FA5"/>
<rect x="133.642" y="0.108394" width="52" height="1.16218" transform="rotate(90.0425 133.642 0.108394)" fill="#F69FA5"/>
<rect x="130.642" y="0.105953" width="52" height="3.57096" transform="rotate(90.0425 130.642 0.105953)" fill="#F69FA5"/>
<rect x="113.065" y="0.0917928" width="52" height="3.79359" transform="rotate(90.0425 113.065 0.0917928)" fill="#F69FA5"/>
<rect x="20.6422" y="0.0168416" width="52" height="5.40999" transform="rotate(90.0425 20.6422 0.0168416)" fill="#F69FA5"/>
<rect x="106.142" y="0.0861775" width="52" height="1.16218" transform="rotate(90.0425 106.142 0.0861775)" fill="#F69FA5"/>
<rect x="99.6421" y="0.0809285" width="52" height="1.16218" transform="rotate(90.0425 99.6421 0.0809285)" fill="#F69FA5"/>
<rect x="91.1421" y="0.0739705" width="52" height="1.16218" transform="rotate(90.0425 91.1421 0.0739705)" fill="#F69FA5"/>
<rect x="84.6421" y="0.0687215" width="52" height="1.16218" transform="rotate(90.0425 84.6421 0.0687215)" fill="#F69FA5"/>
<rect x="76.1421" y="0.0617635" width="52" height="1.16218" transform="rotate(90.0425 76.1421 0.0617635)" fill="#F69FA5"/>
<rect x="65.6421" y="0.0533406" width="52" height="1.16218" transform="rotate(90.0425 65.6421 0.0533406)" fill="#F69FA5"/>
<rect x="61.6421" y="0.0500447" width="52" height="1.16218" transform="rotate(90.0425 61.6421 0.0500447)" fill="#F69FA5"/>
<rect x="57.6421" y="0.0468709" width="52" height="1.16218" transform="rotate(90.0425 57.6421 0.0468709)" fill="#F69FA5"/>
<rect x="46.6422" y="0.0379597" width="52" height="1.16218" transform="rotate(90.0425 46.6422 0.0379597)" fill="#F69FA5"/>
<rect x="35.6422" y="0.0289265" width="52" height="1.16218" transform="rotate(90.0425 35.6422 0.0289265)" fill="#F69FA5"/>
<rect x="31.6422" y="0.0257527" width="52" height="1.16218" transform="rotate(90.0425 31.6422 0.0257527)" fill="#F69FA5"/>
<rect x="27.6422" y="0.0224568" width="52" height="1.16218" transform="rotate(90.0425 27.6422 0.0224568)" fill="#F69FA5"/>
<rect x="23.6422" y="0.019283" width="52" height="1.16218" transform="rotate(90.0425 23.6422 0.019283)" fill="#F69FA5"/>
<rect x="9.64219" y="0.00793045" width="52" height="1.16218" transform="rotate(90.0425 9.64219 0.00793045)" fill="#F69FA5"/>
<rect x="5.64219" y="0.00463455" width="52" height="1.16218" transform="rotate(90.0425 5.64219 0.00463455)" fill="#F69FA5"/>
<rect x="122.642" y="0.0994832" width="52" height="2.6" transform="rotate(90.0425 122.642 0.0994832)" fill="#F69FA5"/>
<rect x="118.642" y="0.0963094" width="52" height="2.6" transform="rotate(90.0425 118.642 0.0963094)" fill="#F69FA5"/>
<rect x="95.6421" y="0.0776326" width="52" height="2.6" transform="rotate(90.0425 95.6421 0.0776326)" fill="#F69FA5"/>
<rect x="80.6421" y="0.0654256" width="52" height="2.6" transform="rotate(90.0425 80.6421 0.0654256)" fill="#F69FA5"/>
<rect x="73.6421" y="0.0598103" width="52" height="2.6" transform="rotate(90.0425 73.6421 0.0598103)" fill="#F69FA5"/>
<rect x="54.6421" y="0.0444295" width="52" height="2.6" transform="rotate(90.0425 54.6421 0.0444295)" fill="#F69FA5"/>
<rect x="39.6422" y="0.0322224" width="52" height="2.6" transform="rotate(90.0425 39.6422 0.0322224)" fill="#F69FA5"/>
<rect x="2.64219" y="0.00219314" width="52" height="2.6" transform="rotate(90.0425 2.64219 0.00219314)" fill="#F69FA5"/>
</svg>
